/* XPM */
static const char *icon_mainicon_xpm[] = {
/* columns rows colors chars-per-pixel */
"32 32 249 2",
"@X c #7A7575",
" X c #C66657",
"t. c #642A19",
"8X c #EF351F",
"9  c #A13B0B",
"OX c #DB5133",
"2. c #2D2D31",
"q  c #874320",
"*. c #969696",
"<  c #933905",
"O  c #AB3A01",
"lX c #7B4129",
"dX c #9A3A13",
"*X c #BB7773",
"{. c #977474",
"tX c #DF7769",
":X c #94676B",
"s. c #F26E50",
"G. c #B8614D",
"B  c #F92E08",
"3. c #452522",
">  c #933603",
"5  c #A17361",
"~  c #8A94A1",
"]. c #554D54",
"5. c #2B2A2D",
"o. c #35322F",
"MX c #988485",
"8. c #7E867E",
"v  c #BBACB5",
" . c #676975",
"fX c #D37273",
"`. c #8F929F",
"X  c #B33F02",
"^  c #6A737D",
"K  c #97A3B1",
"eX c #AE411D",
"uX c #827176",
"i  c #BAC5D4",
"1. c #CED2CF",
"z. c #C8BBC6",
"$  c #C36435",
"GX c #7F1A01",
"!. c #D74B35",
"0  c #943A0A",
"K. c #BA402A",
"l  c #565461",
".  c #852B01",
"W. c #90553F",
"~. c #D23E25",
"c  c #1D1C21",
"Y  c #FBF9F9",
"kX c #943D21",
"+. c #F4441B",
"=  c #CBB9B6",
".. c #45454C",
"%X c #916E6A",
"_  c #221A1C",
"u. c #D6D7D7",
"7  c #B7A3AA",
"N. c #D7B5B4",
"}. c #E33815",
"yX c #6A5554",
"J. c #B6432E",
"9. c #252429",
"m. c #A2A39E",
"P  c #5C5F69",
"4X c #E14433",
"W  c #F9F3EE",
"U. c #776D71",
"   c #8B3302",
"S  c #D38377",
"ZX c #C85327",
"jX c #9A451C",
"1X c #BE5446",
"x. c #F54B25",
",  c #9A3C05",
"DX c #B97F66",
"k. c #DB948C",
"q. c #F3CDC1",
"T. c #46494D",
"oX c #A95D52",
"`  c #421D15",
"R. c #787A7A",
"D. c #28252A",
"I  c #9C3615",
"o  c #C64701",
"#X c #4B4A52",
"2X c #A5AAB6",
"*  c #CEA898",
"|. c #E36149",
"7. c #E6E7E5",
"d  c #9EAFC3",
"X. c #938891",
"Q  c #F0B19D",
"C  c #FD1E00",
";X c #713523",
"M  c #EA5636",
"^. c #D64329",
"l. c #DAAAA7",
"P. c #A13A27",
"_. c #BC421B",
"e  c #9F7B6B",
"0X c #827C83",
"&. c #211E23",
"e. c #F1C1AF",
"<X c #A9452C",
";. c #67656A",
"]  c #F3B8A7",
"iX c #7F635E",
"O. c #A82908",
"b  c #C49798",
"/  c #4C5156",
"rX c #952908",
"'  c #F53004",
"8  c #C1C2CD",
"bX c #B11B01",
"@. c #F4522E",
"#  c #C05317",
"7X c #DB3817",
"6X c #84615A",
"&X c #E73712",
"E  c #F33915",
"G  c #EE7057",
"-. c #F52D03",
"/. c #C6442A",
"m  c #DD6A57",
"y  c #C4CCDA",
"c. c #D7C3C9",
"pX c #924B32",
"%. c #3C1A15",
"(  c #27292E",
"g  c #B49EA8",
"xX c #AF4D2A",
">. c #A42C0D",
"s  c #A9B5C6",
"9X c #D55042",
"n. c #363539",
"4  c #B06037",
"J  c #4D1A0F",
"L  c #777B84",
"a. c #3F2119",
"6  c #A38C88",
"f. c #F36545",
"a  c #B3BAC9",
"f  c #AEB3BF",
"T  c #F8E2DA",
"3X c #A89399",
"{  c #F5D2C7",
"XX c #595761",
"r  c #B79C95",
"#. c #F2846A",
"R  c #F39D87",
"=. c #9DA4A5",
"Y. c #EA320B",
"E. c #9596A6",
"AX c #C6643D",
"B. c #B3736C",
"F. c #C6AEB5",
"zX c #883116",
"z  c #3E4049",
"H. c #BB4939",
"=X c #7B5A5B",
"qX c #CF5F53",
"-X c #F62E09",
"i. c #EDF0ED",
"2  c #AB4408",
"I. c #8F6A65",
"'. c #5C5B65",
"CX c #CC3D0D",
"k  c #A76B67",
"mX c #E83517",
"x  c #2D3138",
"}  c #F4310A",
"nX c #A22001",
"S. c #4D4345",
"SX c #AD4122",
"cX c #B12F11",
"L. c #BB3D27",
"M. c #414145",
"Z. c #903F32",
",. c #F4663F",
"4. c #F27253",
"V  c #FD2300",
"vX c #A91B00",
"d. c #F4A48E",
"F  c #FB2900",
"A  c #19151A",
":. c #555459",
"[  c #EE461C",
"u  c #C8D1DE",
"5X c #B86554",
"@  c #B54305",
"FX c #B24225",
"V. c #A9564B",
"Z  c #E82904",
"(. c #A9503A",
"h  c #B78A8B",
"n  c #D17F75",
"3  c #A94413",
"g. c #F53B0C",
"y. c #41383C",
"H  c #F7E9E4",
"<. c #BD2506",
"$X c #8C868C",
"NX c #9C6D60",
">X c #302F35",
"p  c #AA5A33",
"1  c #782608",
"C. c #A94737",
",X c #494348",
"hX c #846660",
"w  c #925948",
"$. c #F22501",
"wX c #B15235",
"|  c #D32605",
"sX c #A74118",
"[. c #4C4A49",
"p. c #ABAEAC",
"t  c #B7B3BE",
"j  c #C87B76",
"+  c #9B3602",
"D  c #F25736",
"r. c #F72609",
"w. c #EA7E66",
"U  c #F3A894",
"0. c #F4C1B3",
"gX c #79747C",
"h. c #E76B53",
")  c #222125",
"N  c #E84627",
"%  c #CE8059",
"+X c #EA3A15",
":  c #C2CEE0",
";  c #C7D2E2",
"Q. c #C94A38",
"!  c #951C05",
".X c #72737D",
"BX c #AD4919",
"b. c #8B8D9A",
"6. c #CCCAC7",
"&  c #CF967C",
"aX c #A53813",
"VX c #AF3A0B",
"-  c #CCC7CE",
"v. c #D1CEDA",
"). c #9B685A",
"j. c #E48776",
"A. c #776867",
/* pixels */
"      .   X o o X O O O + . + @ # $ % & * = - ; ; ; : : ; : : : ",
"> , <   < 1   2 @ O 3 4 5 6 7 8 ; ; ; ; ; ; ; ; : ; : : : : : ; ",
"2 < 9 2 0 q w e r t y : ; ; : : ; : ; ; : ; : : : ; ; ; u : i i ",
", p 5 r t u : : ; ; : : : : : : ; ; ; ; ; y i i i a s s d d d d ",
"y u ; ; : : u : ; ; ; ; : : : y i y a a s s a f g h j k l z x c ",
": : : y : : : ; u u i i a s a a a v b n m M N B V V C Z A A A A ",
": u : u y i i i s a s t b S m D N D D F V G H D V C C V J A A A ",
"y i i a i a a K L P z I F F F U Y T Y R E H W Q V V C C ! A A A ",
"a a s ~ ^ / ( ) c c _ ` ' V F ] Y [ { H ' F R W } C V C | A A A ",
" ...( / X.o.) c c c c _ O.V V D U +.] Y +.V @.Y #.C V C $.%.A A ",
") &.) *.Y =.( c c c c _ %.' V V F } W T F V -.{ { F C V C 1 A A ",
"c c ) ;.Y Y :.) c c c _ _ >.F F F ,.Y U F F F #.Y @.V V C <._ A ",
"c c ) o.Y Y 1.2.) &.&.) ) 3.' F F R Y 4.F F V E W U E V V $._ A ",
"c &.) 5.6.7.Y 8.5.9.) ) ) ) >.F F 0.Y Q 0.q.} w.e.U #.r.V $.t.y.",
"&.c ) 5.*.u.u.i.p.2.c c &.&.a.-.F s.e.d.#.f.' g.@.h.j.k.l.z.- : ",
"_ &.&.9.:.Y i.Y 1.2.&.c c &.&.>.F ' x.G j.l.c.v.u y y y y 8 X.b.",
"_ _ c c ) n.5.m.7.o.) ) ) M. .X.N.v.u ; ; ; v.z.7 h B.V.C.Z.A.S.",
"t._ _ c ) 9.D.5.5./ L =.y u u y t z.F.b j G.H.J.K.L.L.L.K.P.I.U.",
"Y.a.) ) ) T.R.K u u u ; u a E.R.U.W.H.H.Q.Q.!.~.~.~.^././.(.).h ",
"F _.;.*.i u u u u f `.L './ ].[.U.{.Q.Q.!.!.^.^.}.}.}.Y.} +.|. X",
"l.v.u u u a `..X:.l '.;. .;.XX].[.{.oXOX+X} -.V V V V V V V } N ",
"u v.X.@XXX#X].l XX'.;.^ $X$X;.;.R.S.%XOXV V V V V V V V V V V &X",
"*XV.=XE.;.].:.XX'.'./ #XXXA.y.2.M.n.].7 Y.V F V V V V V V V C -X",
"H.C.;X:XE.;.].z n.>Xn.y.,XS.>X5.9.#X2.b.B.-.V V V V V V V C V V ",
"Q.C.w <X1XX.l 5.2.2.>X>Xy.n.5.D.) 9...n.2X/.V V V V V V C V C C ",
"N [ x.M Z ~.g @X5.D.D.9.&._ A A A c 5.z  .3XZ V V V C V C C C C ",
"V V F B +.$.4X- A.) _ A A A A A A A A >X>XE.5X$.C V C C C C C C ",
"V V V V F g.$.!.v.6X_ A A A A A A A A c n.T.a 7XC C r.8X4X9X1XV.",
"V V V V V V } $.|.v.@XA A A A A &.A A A 9.#X0XoXqX5XG.wXeXrXrX. ",
"V V V V C V V B $.tXu yXc c &.) ) 2.z '.uX%XiXpX9 aXaXsXdXdXaXaX",
"V C V C V V C V V $.fX- y.9...'.gXhXW.jX< sXkXlXzXI xXwXcXvXbXnX",
"C C C C C C V C C -.mX%XU.MXNXp BX3 VXCXZXAXSX>.vX! DXFXvXvXvXGX"
};
