/* XPM */
static const char *icon_execute_xpm[] = {
/* columns rows colors chars-per-pixel */
"22 22 208 2",
"`. c #82D3FF",
"v  c #77BBFF",
"&X c #A0E8FF",
"a. c #3C9EFF",
"3. c #35A0FF",
"g  c #BAE3FF",
"8  c #BCDAF6",
"F. c #5AB3FF",
"%. c #57A6F6",
"+X c #1243A5",
"5. c #1860C5",
"_  c #5571B6",
"C  c #2346A3",
"@X c #415EAD",
"R  c #70B4F6",
"I. c #6EBAF6",
"Z  c #B4C0DF",
"|  c #359AFF",
"}. c #EBEFF7",
"#. c #F5F7FB",
"P  c #548DD9",
"b  c #7ABCFF",
"@  c #3F61B0",
"D  c #6EBAFF",
"oX c #85D1FB",
"M. c #51B2FF",
":. c #3591F0",
"_. c #7BC9FF",
"-X c #2B4BA5",
"Q. c #103D9F",
"-. c #389EFF",
"C. c #B7C4E1",
"s  c #8EC6FF",
"=. c #2E96FF",
"P. c #9EADD5",
"i. c #53A6F6",
"X. c #51AFFF",
":  c #D5DCEE",
"N. c #3588E0",
"s. c #3D9FFF",
"x  c #98C8F6",
"k. c #3D5EAC",
"<X c #1A3F9F",
"e. c #3197F8",
"L. c #18429F",
"=  c #90ABD8",
"$  c #BAC5E2",
"S. c #5EB8FF",
"~. c #FBFCFD",
"k  c #183F9F",
"Y. c #68BDFF",
"J  c #60AFFF",
")  c #0C3DA1",
"-  c #2247A6",
"S  c #85BFF6",
"]. c #3A7ACA",
"Q  c #4AA5FF",
"0  c #A5D1FF",
"!  c #45A1FF",
"3  c #7093CE",
"*X c #65A7DF",
"+. c #0C3A9D",
",  c #CAE1F6",
"O. c #2163C3",
"<  c #E3F5FF",
"o  c #9AAAD5",
"8. c #4FA3F6",
"f  c #A3D4FF",
"w  c #D2EFFF",
"0. c #3498FF",
"Z. c #1445A7",
"'  c #0F41A7",
"X  c #1B40A0",
"4X c #7F93C8",
"R. c #73C9FF",
"4  c #143FA0",
"A. c #66B4F6",
"&. c #3298FF",
"c  c #86C6FF",
".X c #8CD7FF",
"%X c #96DCF8",
"K  c #7AC1FF",
"/. c #73C0F6",
"l  c #91A3D0",
"7  c #1C47A7",
"#X c #D7DEEE",
"`  c #EBEEF6",
"XX c #8FDBFF",
"6  c #EBEEF7",
"%  c #264CA8",
"^. c #1546A7",
"7. c #1042A7",
"y. c #5D78B8",
".  c #244FA8",
"m. c #51B1FF",
"g. c #3DA1FC",
"). c #76C4FF",
";. c #47A9FF",
"2  c #D3E7F6",
"j. c #0941A6",
"5  c #5871B7",
"[  c #3DA1FF",
"h  c #90B9EA",
"(  c #3978CF",
"*. c #3399FF",
"O  c #2950A7",
"x. c #5DADF6",
"o. c #4EA1F3",
"V  c #2255B0",
"   c None",
"m  c #78BBFF",
"d. c #3D9EFF",
"e  c #B3D2F1",
"G  c #62B1FF",
"U  c #3D5DAB",
"]  c #5DAAF6",
"z. c #1343A7",
",X c #3468B9",
"6. c #13409F",
"*  c #F6FDFF",
"[. c #0E3C9F",
">. c #1459BF",
"c. c #4FAEFF",
"n  c #76BBFF",
"a  c #A0D2FF",
"=X c #1B4EAB",
"}  c #369AFF",
"T  c #1143A7",
"B  c #73A5E3",
"H. c #61BEFF",
"E  c #54ACFF",
".. c #399EFF",
"d  c #8FC6FF",
">  c #2049A7",
"w. c #37A1FF",
"+  c #A7BBDE",
"t. c #0A3CA1",
"W  c #48A4FF",
"{. c #617ABA",
"2. c #329AFF",
"J. c #489BEA",
"Y  c #CAD4E9",
"#  c #2544A1",
"3X c #143E9F",
"l. c #D9E0EF",
"|. c #1748A7",
"v. c #4BA8FF",
"2X c #1C49A5",
"h. c #2576D7",
"B. c #104AAD",
"/  c #6BB4FA",
"z  c #1745A7",
" X c #7DC7F6",
"E. c #5AABF0",
"W. c #2767C0",
"q. c #359BFF",
";X c #BEC9E3",
"r. c #1B68CC",
"T. c #6CC1FF",
"$X c #1A49A8",
"~  c #49A5FF",
"f. c #42A7FF",
">X c #78B7E5",
"'. c #71BFF8",
"1  c #E7F9FF",
"i  c #1A46A7",
"1X c #A3B2D8",
"y  c #7B8FC6",
"1. c #3398FF",
"L  c #87C6FD",
";  c #3F59AC",
"K. c #1B59B8",
"5X c #F3F5FA",
"OX c #5091D8",
"<. c #53A4F6",
":X c #1D4DA8",
"b. c #4CA9FF",
"t  c #10389C",
"I  c #1345A7",
"H  c #62B0FF",
"r  c #4F78C2",
"&  c #E2ECF8",
"p. c #40A4FF",
"4. c #3195F5",
"q  c #BBDFFF",
"U. c #6DC2FF",
"V. c #2C50A5",
"F  c #60B0FF",
"M  c #8FCBFF",
"D. c #59B2FF",
"(. c #7CCBFF",
",. c #1B47A3",
"^  c #63B7FF",
"9  c #B9DFFF",
"p  c #AAD0F6",
"{  c #3499FF",
"u. c #EFF2F8",
"n. c #4DAAFF",
"u  c #F9FAFD",
"$. c #0F42A7",
"j  c #3765B9",
"@. c #758CC3",
"!. c #758CC4",
"A  c #1443A7",
"N  c #A1D5FF",
"9. c #379DFF",
" . c #3299FF",
"G. c #5FBAFF",
/* pixels */
"  . X o                                     ",
"  O + @ # $                                 ",
"  % & * = - ; :                             ",
"  > , < 1 2 3 4 5 6                         ",
"  7 8 9 0 q w e r t y u                     ",
"  i p a s d d f g h j k l                   ",
"  z x c v b b n m M N B V C Z               ",
"  A S D F G G G H J G K L P I U Y           ",
"  T R E W Q Q Q Q Q Q ! ~ ^ / ( ) _ `       ",
"  ' ] [ { } } } } } } } |  ...X.o.O.+.@.#.  ",
"  $.%...&.{ { { { { { { *.*.&.=.-.;.:.>.,.  ",
"  $.<.-.1.{ { { { { { { *.*.*.*.2.3.4.5.6.  ",
"  7.8.9.1.{ { { { { { { 0.1.q.w.e.r.t.y.u.  ",
"  T i.p.a.s.s.s.s.s.s.d.s.f.g.h.j.k.l.      ",
"  z.x.c.v.b.b.b.b.b.n.m.M.N.B.V.C.          ",
"  Z.A.S.D.F.F.F.F.G.H.J.K.L.P.              ",
"  Z.I.U.Y.Y.Y.T.R.E.W.Q.!.~.                ",
"  ^./.(.)._.`.'.].[.{.}.                    ",
"  |. X.XXXoXOX+X@X#X                        ",
"  $X%X&X*X=X-X;X                            ",
"  :X>X,X<X1X                                ",
"  2X3X4X5X                                  "
};
