/* XPM */
static const char *icon_export_xpm[] = {
/* columns rows colors chars-per-pixel */
"22 22 213 2",
"<X c #D4D8E3",
"T. c #D9DCE4",
"N  c #576EB7",
"h  c #5C72B8",
"2X c #738CC1",
"m  c #91A7D3",
"a  c #61AEFA",
"q. c #2346A3",
"*  c #7D94C9",
"{  c #879CCE",
"R  c #6E85C0",
"m. c #2769C6",
"n  c #415EAF",
"D  c #3985DF",
"7X c #264DA4",
"L. c #2262C0",
"@. c #C8D0E3",
"G. c #CDD4E5",
"~  c #347ED8",
",  c #E6EBF4",
"c. c #FFFFFA",
"|  c #FAFBFB",
"}  c #FFFFFC",
"H. c #F0F0F1",
".. c #E6E8F0",
"4  c #FFFFFF",
"%. c #E1E1E6",
"}. c #FFF9F3",
"y. c #B5D0EF",
"6. c #4A7CC7",
".X c #134AAC",
"w. c #BCC8E3",
"o. c #327EDA",
"&  c #4E67B3",
"e. c #8092C9",
"~. c #D5D9E6",
"8X c #294EA6",
":X c #E4E8F4",
"$. c #E4E5EA",
">. c #FDFCFB",
"'  c #6A85BF",
"'. c #4C6AB3",
"r. c #4C6AB4",
"8. c #547BC0",
"+. c #2D71CC",
",X c #657EBC",
"n. c #2D71CD",
"x. c #92A5D1",
"[  c #3D5BAD",
"A. c #1A3C9F",
"]  c #133E9F",
"Q  c #539AE8",
"=  c #E7ECF5",
"/  c #D8DDEA",
"3. c #3078D3",
"S  c #3D8DE6",
"C. c #F1EBE9",
"oX c #FBF3ED",
"!  c #3886E1",
"v. c #82ACE2",
"g. c #003BAA",
"!. c #EFF1F1",
"c  c #3D87DF",
"4X c #D1D9EC",
"#X c #2745A3",
"e  c #63B3FF",
"N. c #1C59B8",
"<  c #93A9D3",
"Y  c #7A92C7",
"). c #124BAC",
"d  c #408EE6",
"OX c #758BC2",
"i  c #A7B6D6",
"6X c #4D68B4",
"|. c #BBC6DE",
"O  c #284FA7",
"0. c #D9DBE4",
"z  c #4395ED",
"$X c #FCF7F0",
"M  c #5570B7",
"J  c #163099",
"u  c #E6EDF6",
"5. c #2768C5",
"s  c #469CF4",
">  c #E6EAF0",
"(  c #CDD3E3",
";  c #E6EAF2",
"l. c #5F75BB",
"0X c #E6EAF5",
"B. c #0443AC",
"O. c #2F76D2",
"k. c #627CBA",
" . c #FAF7F7",
"=. c #2B4DA6",
"XX c #9EACCF",
"E. c #ADBBDD",
"j  c #8A9CCD",
"   c None",
"Z  c #FDFEFD",
"1X c #DADCE4",
"E  c #C1C8E0",
"^. c #2F6AC3",
"u. c #2B7FE0",
"P  c #839BCD",
"K. c #1960C4",
"^  c #3277D3",
"<. c #69A6EA",
"Z. c #A6B4D4",
")  c #6F85BF",
"b  c #A6B4D6",
"A  c #58A0ED",
":. c #D3DBEC",
"_. c #B0B9D4",
"v  c #E2E7F2",
"#  c #2C51A7",
"7. c #4875C1",
"5X c #F1F3F9",
"%X c #C4C9DD",
"1  c #3656AB",
"0  c #A9B8DA",
"I  c #113D9E",
"w  c #8B9DCD",
"D. c #C7D0E8",
"k  c #FEFFFE",
"h. c #7A94C6",
"2  c #546BB5",
"Q. c #395AAC",
"9. c #D6D6E0",
"7  c #C3DFFA",
"*X c #F9F2ED",
"`. c #F4EEEC",
"l  c #5EA8F3",
"3  c #8EA1CF",
"x  c #408DE6",
"C  c #8496CA",
"K  c #576FB8",
"+X c #2F4CA7",
"F  c #367FD8",
"2. c #3B83DA",
"+  c #284EA6",
"@  c #284EA7",
"o  c #2D52A8",
"U  c #6481BF",
"9  c #FCFCFC",
"S. c #F7F8FC",
"-X c #193F9F",
"(. c #0B49AF",
"y  c #4394EC",
"6  c #C6E3FE",
"{. c #5F7ABB",
"a. c #2C71CD",
"8  c #C1DCF7",
"9X c #3C5BAD",
"i. c #2A7AD9",
"F. c #193C9E",
"L  c #556FB7",
"$  c #1C46A2",
"f. c #0E50B5",
"t  c #469BF3",
"X. c #4D93E2",
"p  c #556CB6",
":  c #E6E9F2",
"_  c #6C86BF",
".  c #8FA5D2",
"5  c #CEE8FF",
">X c #2648A4",
" X c #225AB6",
"j. c #F5EFEC",
"*. c #9EAED2",
"g  c #A8B6D6",
"z. c #2645A2",
"G  c #DFE5EF",
"-. c #D5DDEE",
"d. c #2060BF",
"&X c #B7BFD7",
"]. c #677CBD",
"B  c #6278BC",
";X c #E9EDF6",
"@X c #FDFDFE",
"p. c #3279D4",
"V  c #1E3199",
"Y. c #D0D0DE",
"X  c #1843A1",
"1. c #69A2E4",
"/. c #0F51B7",
"W  c #F6F6F7",
",. c #8CBBF0",
"T  c #728BC5",
"3X c #1D41A1",
"4. c #2B6FCC",
"#. c #ECE8EB",
"r  c #4AA3FB",
"s. c #2668C5",
"q  c #3B59AD",
"M. c #2161BF",
"-  c #E5EAF3",
"W. c #8B9CCE",
"t. c #F9FAF9",
"U. c #2859B1",
"P. c #1C5AB8",
"[. c #455EAF",
"I. c #0847AE",
"J. c #5389D2",
"%  c #708BC5",
"&. c #F9F4EF",
"`  c #7088C1",
"=X c #8498C7",
"V. c #4B72BB",
";. c #1B3E9F",
"R. c #2546A3",
"b. c #2271D2",
"f  c #E3EAF3",
"H  c #A2B0D3",
/* pixels */
"                                            ",
"                                            ",
"            . X o O + @ + # $ %             ",
"            & * = - ; : > , < 1             ",
"            2 3 4 5 6 7 8 9 0 q             ",
"            2 w 4 e r t y u i q             ",
"            p w 4 a s y d f g q             ",
"            h j k l z x c v b n             ",
"    m M N B V C Z A S D F G H J B K L P     ",
"    I U Y T R E W Q ! ~ ^ / ( ) _ ` ' ]     ",
"    [ { 4 } |  ...X.o.O.+.@.#.$.%.&.*.=.    ",
"    -.;.:.>.,.<.1.2.3.4.5.6.7.8.9.0.q.w.    ",
"      e.r.t.y.u.i.p.a.s.d.f.g.h.j.k.l.      ",
"        z.x.c.v.b.n.m.M.N.B.V.C.Z.A.S.      ",
"        D.F.G.H.J.K.L.P.I.U.Y.T.R.E.        ",
"          W.Q.!.~.^./.(.)._.`.'.].          ",
"            [.{.}.|. X.XXXoXOX+X@X          ",
"            S.#X` $X%X&X*X=X-X;X            ",
"              :X>X,X<X1X2X3X4X              ",
"                5X6X7X8X9X0X                ",
"                                            ",
"                                            "
};
