/* XPM */
static const char *icon_new_xpm[] = {
/* columns rows colors chars-per-pixel */
"22 22 235 2",
"j. c #EE9D2C",
"}  c #C89589",
"t  c #FCFEFF",
"R. c #FEF77E",
"l. c #7F4757",
"H  c #92C0EC",
"2X c #86BEEA",
"~  c #E9FEFF",
"/. c #E1F0FF",
"e  c #B7D3EC",
"A. c #F3CA3C",
"A  c #EBF5FF",
"p. c #D4CFD5",
"n. c #DFF0F9",
"s  c #F5FAFF",
"(. c #DFF0FF",
"_. c #DDF6FF",
"S. c #F9D229",
"-  c #FFFFFF",
"kX c #4F7AAB",
"1X c #2A6199",
"p  c #547BA3",
"b. c #E4F1FF",
"4. c #DAE0E7",
"+  c #5C8CB9",
"Y  c #DDF0FF",
"g  c #AECFEC",
":  c #FDFFFF",
"!. c #B06D3F",
"0  c #F8FBFF",
"_  c #EAFFFF",
"M  c #E2F1FF",
"F. c #E78A20",
"#. c #ECF6FF",
"z. c #F0A6A1",
"o. c #DBF0FE",
"0X c #8AC6EF",
"8  c #FBFFFF",
";X c #F1C14A",
"q  c #F6FBFF",
"Q  c #F1F7FF",
"i. c #E5F5FF",
"F  c #E0F1FF",
"s. c #BA8186",
"3  c #FBFCFF",
"N  c #EFFAFF",
"3. c #E8FCFF",
"S  c #E5F2FF",
"~. c #EA7456",
"O. c #A58A96",
"'  c #5078AA",
"=  c #F9FFFF",
"[. c #DB8840",
"]  c #EFF7FF",
"l  c #EAF3FF",
"^. c #E8F9FF",
"4  c #F9FCFF",
"^  c #E6FCFF",
"i  c #B9D5EC",
"m. c #BE8965",
"g. c #FDE96E",
"dX c #49719E",
"E  c #4E75A2",
"$. c #E8F3FF",
"V  c #4E75A3",
"X. c #DAAA7E",
"{. c #F2C550",
"7X c #8DC1EF",
"-. c #F2C247",
"%  c #3D6C9C",
" X c #A67F5B",
"d  c #F2F8FF",
"x. c #3170AF",
"Y. c #CC7036",
">  c #B2D1EB",
"=X c #E9B078",
"5. c #D09C76",
"2  c #FCFDFF",
"E. c #FFFD60",
"aX c #C3CEDA",
"v. c #E6F3FF",
"lX c #635A79",
"%. c #C69A91",
"jX c #4C72A0",
"U. c #C69178",
">. c #FBCB1B",
".X c #966984",
"H. c #E9FAFF",
"5X c #90C2EF",
"k. c #904C6A",
"9  c #FAFDFF",
"J. c #F5F9FF",
"eX c #768FBE",
"#X c #E9F7FF",
"z  c #F3FCFF",
"r  c #547AA3",
"u. c #E9F4FF",
"6X c #8EC2EF",
"X  c #5283B3",
",X c #FFDF22",
"b  c #F3F9FF",
"oX c #F1FFFF",
"@  c #5C8BB9",
"   c None",
"zX c #E87620",
"3X c #98C7F0",
"&. c #E3AA5B",
" . c #D1AFB2",
"1  c #FDFEFF",
"wX c #906356",
"-X c #BB6A6C",
"6  c #527AA2",
"@X c #ECF8FF",
"5  c #BDD7EE",
"=. c #C1848B",
"@. c #F1F9FF",
"n  c #ECF5FF",
"L. c #E0F3FD",
")  c #D4B3AE",
"4X c #91C3EF",
"(  c #D07B4D",
"&X c #CAA59E",
"W. c #ED9D2D",
"C  c #F6FAFF",
"k  c #F1F6FF",
"!  c #EAF8FF",
"gX c #4B739E",
"<. c #4E80AF",
"9X c #8ABFEF",
"sX c #50749F",
"y  c #F4FAFF",
"O  c #5D8CB9",
"q. c #CAAA46",
"9. c #D87731",
"pX c #CD6B59",
";  c #FEFFFF",
"P. c #C9B5B2",
"y. c #EDF6FF",
"c  c #4E74A3",
"#  c #5B8CB9",
"XX c #3172B2",
"7  c #5181AF",
"qX c #7D95BA",
",. c #E86124",
"*. c #D29876",
"f  c #FCFFFF",
"v  c #F7FBFF",
"$X c #E6F5FF",
"}. c #E4962F",
"|  c #D9DADF",
"`  c #8BC6F5",
"K. c #E1F1FF",
"N. c #EDCC87",
"M. c #E5BB7C",
"7. c #C96235",
"m  c #E6F2FF",
"&  c #C3CDDA",
"Q. c #AA6C59",
"8X c #8BC0EF",
"Z. c #FFFC67",
"L  c #F5FBFF",
"tX c #FAC643",
"t. c #F0F7FF",
"e. c #3473AF",
":. c #CD9183",
"[  c #E9F9FF",
"%X c #E7FFFF",
"8. c #F0C14E",
"D  c #E4F5FF",
";. c #D59C7E",
"/  c #D9D1D8",
"W  c #FAFCFF",
"{  c #DCDBDE",
".. c #EDA82B",
",  c #5479A0",
"h. c #FFF055",
"cX c #4F78AC",
"1. c #EEF7FF",
"P  c #E9F3FF",
"rX c #9190AD",
"6. c #F3D485",
".  c #6382A3",
"C. c #FFFF90",
"K  c #F8FCFF",
"I. c #CAA480",
"Z  c #F3F8FF",
"G. c #3270AF",
"B  c #93C2EC",
"o  c #618EBA",
"). c #DDEEFF",
"D. c #FFDB1F",
"]. c #EECA79",
"a. c #CAB0AF",
"OX c #F1FBFF",
"h  c #5279A3",
"vX c #7792B6",
":X c #D0866A",
"'. c #C29082",
"c. c #EAFAFF",
"I  c #E5F6FF",
"d. c #C66C39",
"a  c #FBFDFF",
"+X c #EFFBFF",
"*X c #F5BC6D",
"R  c #91BFEC",
"T  c #EAF7FF",
"hX c #4B75A3",
"fX c #4B729E",
"0. c #F5D036",
"*  c #497BA9",
"`. c #D4EAF9",
"f. c #FCE075",
"xX c #845758",
"<X c #DB5A27",
"T. c #FFEA7A",
"<  c #5383B1",
"B. c #ECC171",
"J  c #F9FDFF",
"w  c #F4F9FF",
">X c #DE995F",
"r. c #EDFBFF",
"x  c #94C3EC",
"iX c #966752",
"U  c #DEECF8",
"j  c #FEFEFF",
"w. c #97576D",
"yX c #B3A184",
"G  c #EDF8FF",
"2. c #E8F4FF",
"+. c #955A68",
"uX c #71A1E2",
"|. c #FDD537",
"u  c #F2F9FF",
"V. c #FDEA80",
"$  c #608FBB",
/* pixels */
"                                            ",
"  . X o O O O O O O O O O + + @ # $ % &     ",
"  * = - - - - - - - - - - ; ; ; : - > ,     ",
"  < ; - - - - - - - - - - 1 2 3 4 - 5 6     ",
"  7 8 - - - - - - - ; 2 9 4 0 q w - e r     ",
"  7 8 - - - - - - 1 t 9 4 0 q y u : i p     ",
"  7 8 - - - - - ; t a 9 0 q s w d f g h     ",
"  7 8 - - - - j t 9 4 0 q s w k l z x c     ",
"  7 8 - - - ; t a 4 0 v s b n m M N B V     ",
"  7 8 - - 1 t 9 4 v v C Z A S D F G H V     ",
"  7 8 - j t a J K q L d P S I U Y T R E     ",
"  7 8 - a a W 0 v s Q ! ~ ^ / ( ) _ ` '     ",
"  7 8 - 9 4 0 q y ] [ { } |  ...X.o.O.+.    ",
"  7 8 ; J 0 C @.#.$._ %.&.*.=.-.;.:.>.,.    ",
"  <.= t C b 1.A 2.m 3.4.5.6.7.8.9.0.q.w.    ",
"  e.r.W t.y.A u.m i.p.a.s.d.f.g.h.j.k.l.z.  ",
"  x.c.v y.A u.v.b.n.m.M.N.B.V.C.Z.A.S.D.F.  ",
"  G.H.J.A u.v.b.K.L.P.I.U.Y.T.R.E.W.Q.!.~.  ",
"  x.^.u u.v.b./.(.)._.`.'.].[.{.}.|. X.X    ",
"  XXoX: z OX+X@X#X$X%X&X*X=X-X;X:X>X,X<X    ",
"  1X2X3X4X5X6X7X8X9X0XqXwXeXrXtXyXuXiXpX    ",
"  aXsXdXfXfXfXfXgXgXfXhXjXkXlXzXxXcXvX      "
};
