/* XPM */
static const char *icon_open_xpm[] = {
/* columns rows colors chars-per-pixel */
"22 22 219 2",
"V. c #83BDFF",
"-X c #4A9AFF",
"(  c #B7D9FF",
"q. c #B4CCFA",
"[. c #6DB0FF",
"a. c #97C7FF",
"&  c #919292",
"~. c #61AEFF",
"q  c #787E8F",
"K. c #969696",
"P  c #E1EDFF",
"Z  c #74ABFF",
"m  c #BADDFF",
"/. c #2F57E6",
"6X c #9EB3D4",
"3. c #B0D5FF",
"*  c #FFFFFF",
"0  c #B2C6E7",
"k  c #F0F0F6",
"O. c #BADAFF",
"V  c #7CB3FF",
";X c #469AFF",
"_. c #177FFF",
"n. c #287CE5",
"t  c #CBDDFE",
"f  c #C4DFFF",
"1X c #3177F8",
" X c #5AA7FF",
"&X c #509FFF",
"C. c #7FBAFF",
"w  c #CEE4FF",
",. c #333539",
"7X c #005FF6",
"*. c #BDDEFF",
"v. c #5B5B5B",
"t. c #3A92FF",
"]  c #B0C9FB",
"~  c #C2DFFF",
"H  c #0050CF",
"B  c #6193D9",
"5  c #E2EEFF",
"5X c #979797",
"[  c #9EB0F4",
"5. c #A2CDFF",
"=  c #FBFFFF",
"8  c #C7E0FF",
"|. c #5DA8FF",
"f. c #87BFFF",
"rX c #E2E2E2",
"^. c #4885F5",
"%  c #F1F1F1",
"1  c #868B8E",
"r  c #CCDEFF",
"3X c #3D93FF",
"p. c #9BC9FF",
"_  c #CAE4FF",
"u  c #C7DAFF",
"l. c #334AA7",
"h  c #C5E0FF",
".X c #56A4FF",
"w. c #A1B1F3",
"=X c #4C9CFF",
"-. c #92A5F2",
"p  c #3E3E3D",
"9X c #004DEF",
".  c #757671",
"S  c #D9EAFF",
"]. c #6FB2FF",
"J. c #0E72FF",
"#  c #2B65C0",
"&. c #C8E4FF",
"wX c #55709A",
"Z. c #79B7FF",
"u. c #9ECAFF",
"@X c #0C75FF",
"!  c #C8E1FF",
"%. c #A0B8DA",
"W  c #59A5FF",
"s. c #92C5FF",
"G. c #365AE6",
"y  c #CDDFFF",
"6. c #9CCAFF",
"9  c #C1DDFF",
"N  c #2F88FF",
"y. c #3483E5",
"U. c #7CB8FF",
"k. c #496BB0",
"i  c #DAEEFF",
"7. c #A3BCE2",
";  c #3F3F38",
"L. c #DCDCDC",
"G  c #77ABE5",
"!. c #61AAFF",
"N. c #8BC1FF",
"z  c #B7D2FF",
"R  c #E4F3FF",
"D  c #3A3B3D",
"I. c #1E76E5",
"r. c #303037",
"M  c #77A8E5",
"^  c #BFDDFF",
"K  c #E9F4FF",
"$  c #9EAFD3",
"8X c #0064F8",
"4X c #0A66E9",
"<. c #4699FF",
"<X c #3F9BFF",
"D. c #6EB6FF",
"`  c #BFDAFF",
"   c None",
"P. c #2183FF",
"X. c #4B91E5",
"H. c #64ABFF",
"2  c #F1FCFF",
"qX c #0058E3",
"+  c #565656",
"c. c #292932",
"A. c #73B4FF",
"E. c #6EB0FF",
"$X c #0D67E2",
"s  c #BDDAFF",
"Y. c #7DB9FF",
"4. c #A7D0FF",
":  c #0046B5",
"2X c #214EE9",
"`. c #1572E5",
"1. c #3F89E5",
"4  c #E2EAFF",
"O  c #818383",
"z. c #5581B7",
"'  c #C0DEFF",
"C  c #73ABFF",
"x. c #1757B7",
"F  c #85BEFF",
"@. c #AFD5FF",
">. c #FEFFFF",
")  c #A7BBD9",
"j. c #5D89B7",
"Q. c #65ACFF",
"@  c #B1C6E8",
"M. c #8FC3FF",
"E  c #39393C",
";. c #B4D6FF",
"}  c #7BB3FF",
"T  c #78A0E2",
">X c #4096FF",
"S. c #6FB1FF",
",  c #0037AF",
"{  c #B9D7FF",
"yX c #A2A2A2",
"v  c #B1C9FF",
"b  c #C8E0FF",
"J  c #CACED9",
"B. c #88BFFF",
"XX c #57AAFF",
"W. c #68ADFF",
"0. c #C6E3FF",
"/  c #BCDBFF",
"U  c #D4DCFB",
"+X c #52A3FF",
"R. c #77B6FF",
"-  c #FAFFFF",
"9. c #C6E0FF",
"L  c #E1EBFF",
"n  c #3A3D3D",
"#. c #ABD2FF",
"}. c #66ADFF",
" . c #35363A",
"b. c #2D8AFF",
"j  c #DAEAFD",
"<  c #8A9BBF",
"a  c #CEE8FF",
"c  c #B2CAFF",
"eX c #A3A3A3",
"Y  c #DFEBFF",
"x  c #ADC6FF",
"7  c #DDF1FF",
"T. c #7AB7FF",
">  c #9CBAEA",
"+. c #B3D7FF",
"0X c #0031E2",
"'. c #6EB2FF",
"). c #0D72FF",
"Q  c #5094E5",
"d. c #8EC1FF",
":X c #4498FF",
"e  c #C9DBFF",
"g  c #C2DDFF",
"%X c #0048BA",
"e. c #89BAFF",
"6  c #40423D",
"3  c #E2ECFF",
"tX c #C9C9C9",
"OX c #2B55E6",
".. c #53A1FF",
"*X c #4E9DFF",
"2. c #ACD3FF",
"F. c #528BF5",
"o. c #B6D8FF",
"l  c #727C8F",
",X c #3D94FF",
"X  c #818283",
"=. c #A9C3FA",
"A  c #B3CBFF",
":. c #7DB2FF",
"oX c #4182F5",
"$. c #A5CFFF",
"I  c #DBE5FE",
"#X c #0E73FC",
"{. c #6AAFFF",
"|  c #F2FCFF",
"m. c #8FC2FF",
"g. c #71A1DB",
"o  c #7F7F7F",
"i. c #9ECBFF",
"h. c #5D85B7",
"8. c #C8E2FF",
"d  c #C3DEFF",
"(. c #59A6FF",
/* pixels */
"                                            ",
"                                            ",
"                      . X o o o o o o O +   ",
"  @ # # # # # # # $ % & * = - - - - = * ;   ",
"  : * * * * * * > , < 1 2 3 4 4 4 4 5 = 6   ",
"  : 7 7 8 8 8 9 = 0 , q w e r t y r u i p   ",
"  : a a s d f g h j k l z x c c c v v b n   ",
"  : m m M N N N N N N B V C Z Z Z Z A S D   ",
"  : F G H * * * * * * J K L P I U Y T R E   ",
"  : W Q H h ! ~ ^ / ( ) _ ` ' ] [ { } |  .  ",
"  : ..X.H o.O.+.@.#.$.%.&.s *.=.-.;.:.>.,.  ",
"  : <.1.H 2.3.#.4.5.6.7.8.9.0.q.w.^ e.* r.  ",
"  : t.y.H u.i.p.a.s.d.f.g.h.j.k.l.z.x.c.v.  ",
"  : b.n.H m.M.N.B.V.C.Z.A.S.D.F.G.H.J.K.L.  ",
"  : P.I.H U.Y.T.R.A.E.W.Q.!.~.^./.(.).K.L.  ",
"  : _.`.H '.].[.{.}.!.|. X.XXXoXOX+X@XK.L.  ",
"  : #X$X%X&X&X*X=X-X;X:X>X,X<X1X2X3X4X5XL.  ",
"  6XH H H 7X7X7X7X7X7X7X7X7X8X9X0XqXwXeXrX  ",
"  % tXyXK.K.K.K.K.K.K.K.K.K.K.K.K.K.eXtX%   ",
"    % rXL.L.L.L.L.L.L.L.L.L.L.L.L.L.rX%     ",
"                                            ",
"                                            "
};
