/* XPM */
static const char *icon_pretty_xpm[] = {
/* columns rows colors chars-per-pixel */
"22 22 213 2",
"C. c #799187",
"w. c #E8E8E8",
"H  c #2D2D2D",
"9  c #F7F7F7",
"q. c #FCFBFB",
"V  c #4B4B4B",
"0. c #D2D8D5",
"M. c #109110",
"/. c #D8ECD9",
"z. c #787878",
")  c #A9C5B2",
"9X c #588965",
"C  c #878787",
"]. c #C7E0C7",
"a  c #A5A5A5",
":  c #B4B4B4",
"v. c #10B410",
"M  c #C3C3C3",
";X c #F5F7F6",
"*. c #C8C7C7",
"-. c #E1E1E1",
"b. c #19AC19",
"3  c #F0F0F0",
"*  c #FFFFFF",
"A  c #AAA6AA",
"Z. c #EBE9EA",
"F. c #8FB892",
",. c #808080",
"@  c #8F8F8F",
":. c #9E9E9E",
"(  c #ACC6B3",
"f  c #ADADAD",
"8X c #91B29C",
"%  c #BCBCBC",
"}. c #3C5948",
"T  c #CBCBCB",
"^  c #689C6E",
"s  c #E9E9E9",
",  c #F8F8F8",
"k  c #4C4C4C",
"1. c #508F55",
"@X c #578D5A",
"D. c #797979",
"%X c #006000",
"#  c #888888",
"p  c #979797",
"<X c #73AE71",
"Q. c #B5B5B5",
"i. c #39B839",
"y. c #C2F0C1",
"8. c #80A08E",
"k. c #E2E2E2",
":X c #6B9D6D",
"+X c #5F9860",
"`. c #027D02",
"2  c #F1F1F1",
"m  c #454545",
"S  c #F6F5F6",
"&. c #ECEAEB",
"1X c #C6E1C5",
" . c #636363",
"'. c #5EAB5E",
"^. c #5D9B5F",
"+  c #909090",
"y  c #AEAEAE",
"N. c #007D00",
"[  c #020202",
"2. c #5A8E61",
"S. c #EAEAEA",
"F  c #2F2F2F",
">  c #F9F9F9",
"Q  c #5C5C5C",
"e. c #7A7A7A",
"@. c #68D367",
"5  c #989898",
"W. c #B6B6B6",
"0X c #F7F9F7",
"v  c #ACABAC",
"x  c #C5C5C5",
"j. c #E3E3E3",
".. c #282828",
"t. c #E2F9E3",
"0  c #F2F2F2",
"U. c #248022",
"~. c #464646",
"D  c #646464",
".X c #737373",
"h. c #E8E4E6",
"%. c #7B847F",
"!  c #828282",
"/  c #AEC8B2",
"O  c #919191",
"|. c #7D7B7B",
"]  c #A0A0A0",
"&  c #AFAFAF",
";. c #BEBEBE",
"e  c #EBEBEB",
"<. c #8FBA90",
"~  c #ACC8AC",
"8  c #FAFAFA",
"'  c #F5F3F4",
"V. c #BBD7BF",
"#X c #DDE9DF",
"x. c #8FB792",
"&X c #7FBB7D",
"b  c #A8A8A8",
"s. c #B7DDB6",
"}  c #C6C6C6",
"_  c #3A5E45",
"   c None",
"z  c #E4E4E4",
".  c #F3F3F3",
"9. c #8CAA99",
"`  c #565656",
"$X c #2B952B",
"N  c #747474",
"J. c #1EA61E",
"J  c #838383",
"c. c #A3EAA3",
"o  c #929292",
"OX c #A8C8A9",
">X c #CFE1D2",
"G. c #AAE8A9",
"7  c #B0B0B0",
"H. c #1AAF1A",
"O. c #D4E5D6",
"E  c #DDDDDD",
"P  c #7F8C83",
"$. c #809F8D",
"R. c #B0ADAE",
"u  c #ECECEC",
";  c #FBFBFB",
"7. c #B1C0BB",
"B  c #6D6D6D",
"3X c #EFF3EF",
"c  c #8B8B8B",
"Y  c #777576",
"T. c #677F74",
"R  c #1B1B1B",
"L  c #6F8A70",
"1  c #F4F4F4",
"g. c #6A8678",
"P. c #0F880F",
"*X c #A8BCB0",
" X c #757575",
"X. c #848484",
"r  c #939393",
">. c #A2A2A2",
"t  c #B1B1B1",
"I  c #D0E2D5",
"6X c #9FBEA6",
"6. c #8ED88C",
"#. c #C3F0C2",
"w  c #EDEDED",
"K. c #1A9D1A",
"r. c #6AA36C",
"-  c #FCFCFC",
"n. c #1DA71D",
"K  c #DAE7DA",
"l  c #5F5F5F",
"n  c #6E6E6E",
"$  c #7D7D7D",
"Z  c #B4B5B4",
"g  c #AAAAAA",
"L. c #159315",
"j  c #E6E6E6",
"(. c #CAE8CB",
"A. c #F5F5F5",
"|  c #3A3A3A",
"7X c #A2BFAA",
"a. c #5EBB5E",
"=X c #588164",
"4. c #45C745",
"[. c #C5DEC7",
"-X c #679078",
"6  c #B2B2B2",
"). c #BCE3BC",
"oX c #C1C1C1",
"l. c #DFDFDF",
"4  c #EEEEEE",
"m. c #1B9E1B",
"h  c #FDFDFD",
"5X c #5C9562",
"U  c #ABAEAC",
"XX c #6F6F6F",
"X  c #7E7E7E",
"3. c #E0ECE2",
"_. c #2E9E2E",
"=. c #ABABAB",
"E. c #BABABA",
"Y. c #C3DBC6",
"f. c #AFC8B8",
"4X c #BED4BF",
"B. c #158114",
"<  c #F6F6F6",
"o. c #6B9B6C",
"2X c #7EA188",
"G  c #959595",
"!. c #B3B3B3",
"u. c #AFE5AF",
"d. c #B3D9B3",
"W  c #E0E0E0",
"{. c #BCD4C4",
"q  c #EFEFEF",
"p. c #0EA00E",
"5. c #00A100",
"=  c #FEFEFE",
",X c #9BCC9A",
"{  c #616161",
"+. c #9DEC9C",
"d  c #8E8E8E",
"i  c #ACACAC",
"I. c #0C7A0C",
/* pixels */
"                                            ",
"          . X o o O O O O O O O + @ O # $   ",
"          % & * * * * * * * * = - - ; * +   ",
"          : : * - ; > , < < 1 . 2 3 4 ; 5   ",
"          6 7 * 8 , 8 9 1 1 0 3 q w e , r   ",
"          t y * 9 > 2 0 1 0 2 q w u e 9 +   ",
"          & i * 9 = p a = 3 q 2 > 1 s < d   ",
"          f g * h j k l 0 1 3 z & x u < c   ",
"          v b * * b n m M = s N B V t = C   ",
"          Z A * S D n F B - q G X H @ * J   ",
"        K L P I U Y T c R E W Q # F + * !   ",
"      ~ ^ / ( ) _ ` ' ] [ { } |  ...V 4 X.  ",
"      o.O.+.@.#.$.%.&.*.=.g -.;.:.% >.s ,.  ",
"  <.1.2.3.4.5.6.7.8.9.0.q.1 w.4 2 w u 3 e.  ",
"  r.t.y.u.i.p.a.s.d.f.g.h.w.j.k.-.l.E 4 z.  ",
"  x.c.v.b.n.m.M.N.B.V.C.Z.A.4 w u S.w.8 D.  ",
"  F.G.H.J.K.L.P.I.U.Y.T.R.E.W.Q.Q.: W.!.~.  ",
"  ^./.(.)._.`.'.].[.{.}.|. X X X X X.XXXoX  ",
"  OX+X@X#X$X%X&X*X=X-X;X                    ",
"      :X>X,X<X1X2X3X                        ",
"      4X5X6X7X8X9X0X                        ",
"                                            "
};
