/* XPM */
static const char *icon_reset_xpm[] = {
/* columns rows colors chars-per-pixel */
"22 22 246 2",
"yX c #F7F7F7",
"3. c #7EADDD",
"-. c #1472D0",
"&X c #D7E5F2",
"q  c #305BA9",
"`  c #0B48AD",
"4  c #5E9EE7",
":  c #919EB7",
"2  c #8DB9E8",
")  c #1359BE",
"9. c #378EE3",
"#X c #AAACAE",
"E. c #E6EEF6",
"^  c #2A79D9",
"~. c #1E71C3",
"T  c #063EA3",
"/  c #1B6ACF",
"+X c #C3C3C3",
"A  c #1043A0",
"U  c #0E4FB4",
"tX c #E1E1E1",
"9  c #6D9ED3",
"#  c #5D76A9",
"fX c #225FBB",
"o  c #F5F7FB",
"t. c #FFFFFF",
"E  c #013499",
"P  c #1660C5",
"0  c #5484C1",
"V  c #0945AA",
"D  c #4265A5",
"t  c #86B2E5",
"_. c #0B71D6",
"N  c #1156BB",
"cX c #CBCBCB",
"-X c #0B6ED3",
"+. c #1657B9",
"y  c #64A9F3",
"nX c #E9E9E9",
"s. c #389BFE",
"@X c #F8F8F8",
"P. c #1A77D2",
"%  c #406BB4",
"u  c #3084E5",
"w  c #ABB3C3",
"G. c #ECF3FA",
"*  c #4D7ABC",
",X c #D3D3D3",
"$. c #073C9F",
";. c #204D9B",
"X. c #87B9EB",
"_  c #0F50B5",
"J. c #2977C4",
"l. c #76B9FF",
"[  c #023599",
"e  c #F1F1F2",
"(  c #1761C6",
"n. c #C0DFFF",
"=X c #2971B8",
"Y  c #0A46AB",
"$  c #3961AC",
"u. c #CAE4FE",
"`. c #0C72D7",
"I  c #1257BC",
"k  c #3263AF",
"$X c #395B9F",
"c  c #56A1F3",
"<  c #4D6EAD",
"wX c #1E50A4",
"zX c #B8B9BC",
"C  c #053CA1",
"6X c #4285CB",
"x. c #4FA6FF",
"v  c #2780E5",
"!. c #2270BD",
"%. c #0A3D9D",
"B  c #0D4DB2",
"|  c #234E9B",
"i  c #2276DB",
"1. c #C3DDF4",
"B. c #98A4BC",
"r. c #E8F3FF",
"g  c #0D47AA",
"jX c #1C53AE",
"<. c #CDE5FC",
"g. c #147ADF",
"'. c #9BB7E1",
"CX c #C5C8CD",
"3X c #46649F",
"9X c #197BDC",
"p. c #52A7FC",
"MX c #D4D4D4",
"7. c #68A2D6",
"A. c #57A8FB",
"Q  c #30579C",
"L. c #1E76CC",
"h  c #295FB2",
",. c #CBE5FF",
"'  c #0640A5",
"pX c #9BA2B1",
"F. c #AAB4C8",
"Z. c #66B1FE",
" . c #99B7E3",
"r  c #4467AC",
">X c #AFAFAF",
"q. c #086CD1",
"(. c #1274D5",
"f. c #2186EC",
"aX c #5871A2",
"w. c #94A1BA",
"8. c #5AA0DF",
"O. c #2568C5",
"2X c #A8ABB1",
"7X c #2174C6",
"M. c #CEE6FF",
"3  c #7AB2ED",
"I. c #1A7CDD",
"uX c #D5D5D5",
";X c #0C4BAB",
"   c None",
"hX c #1B5ABA",
".  c #F8FAFC",
"O  c #FDFEFE",
"SX c #F3F3F3",
"oX c #0666CB",
"f  c #0C4BB0",
"Q. c #266FB7",
":X c #838C9D",
"C. c #82C0FF",
"D. c #429FFD",
"2. c #A2C9EA",
":. c #8D9AB5",
"#. c #0741A6",
"m. c #67B2FF",
">. c #9AB8E3",
"VX c #BABEC8",
"4. c #699DD4",
"4X c #6887C4",
"]  c #02379C",
"bX c #FBFBFB",
"0X c #1879DE",
"lX c #818FAA",
"i. c #60AEFC",
"5  c #4E8FDE",
"z  c #9FAABF",
"8X c #1D74CB",
"*X c #E5EEF6",
"K  c #1F71D6",
"{. c #076DD2",
"6  c #4988D7",
"=. c #5697D0",
"K. c #2275C7",
"T. c #9DB9E3",
"@  c #B8BECB",
"rX c #B8B8B8",
"=  c #3C6AB4",
"ZX c #D6D6D6",
"x  c #6994D3",
"gX c #1C5BBA",
"vX c #E5E5E5",
"]. c #96B5D5",
"/. c #1673CE",
"OX c #2D5295",
"R. c #B4D0ED",
"5X c #C0CFE8",
"{  c #2B5EAC",
".X c #A2ABBC",
"h. c #C8E3FF",
"[. c #DEE7F1",
"j. c #EDF6FF",
"o. c #518DD7",
"8  c #5B92D3",
"V. c #F7FBFF",
"N. c #97CBFF",
"mX c #DEDEDE",
"}  c #5491CA",
">  c #EDEDEE",
"+  c #FCFCFC",
"a. c #46A1FC",
"H. c #4388CD",
"l  c #B4BBC8",
"~  c #7CB4EE",
"U. c #1C81E6",
"Y. c #1C81E7",
"L  c #1B68CD",
"-  c #2E5CAA",
"&  c #4C77BB",
"Z  c #01359A",
"J  c #2379DE",
"M  c #165EC3",
"H  c #3C8DE9",
"c. c #44A1FF",
"dX c #225AB5",
"e. c #C9E4FF",
"n  c #1E6FD4",
"kX c #4263A2",
"W. c #E4ECF5",
"}. c #066BD0",
"d  c #1154B9",
"xX c #C1C1C1",
"j  c #6194CA",
"a  c #1965CA",
"sX c #2C59A9",
"X  c #F3F5FA",
"<X c #FDFDFD",
"F  c #7E8DAC",
"^. c #1A72C9",
"G  c #75A4E1",
"v. c #CCE5FF",
"XX c #7798D1",
".. c #ACD3F9",
"b. c #F1F8FF",
"7  c #4B87D3",
"S. c #4CA3FB",
"|. c #204E9C",
"d. c #2C91F7",
"AX c #D8D8D8",
",  c #E2E3E6",
"*. c #5082BE",
"R  c #02369B",
"%X c #7FA3D5",
"z. c #5BACFF",
"qX c #1061C6",
"S  c #5D91C6",
"0. c #167BDF",
"&. c #2355A8",
"BX c #BDC1C9",
"1X c #C2C2C2",
"iX c #C2C2C3",
"k. c #F4F9FF",
"W  c #5386BF",
"!  c #87AEE1",
"1  c #5A84C4",
"m  c #1A66CB",
" X c #FEFEFE",
"y. c #FEFEFF",
"@. c #0D4BAF",
"b  c #2277DC",
"eX c #8993A6",
"s  c #155CC1",
";  c #466BB2",
"). c #0F74D8",
"p  c #1D6DD2",
"6. c #6599CE",
"5. c #6095CE",
"NX c #CFD1D3",
/* pixels */
"                . X X o O                   ",
"        + @ # $ % & * = - ; : >             ",
"      , < 1 2 3 4 5 6 7 8 9 0 q w           ",
"    e r t y u i p a s d f g h j k l         ",
"    z x c v b n m M N B V C Z A S D         ",
"    F G H J K L P I U Y T R E E W Q         ",
"    F ! ~ ^ / ( ) _ ` ' ] E [ { } |         ",
"    F  ...X.o.O.+.@.#.$.%.&.*.=.-.;.        ",
"    :.>.,.<.1.2.3.4.5.6.7.8.9.0.q.;.        ",
"    w.>.e.r.t.y.u.i.p.a.s.d.f.g.q.;.        ",
"    w.>.h.j.t.k.l.z.x.c.s.d.f.g.q.;.        ",
"    w.>.v.b.t.n.m.z.x.c.s.d.f.g.q.;.        ",
"    w.>.M.b.y.N.m.z.x.c.s.d.f.g.q.;.        ",
"    B.>.M.b.V.C.Z.A.S.D.s.d.f.g.q.;.        ",
"    F.>.M.b.G.H.J.K.L.P.I.U.Y.g.q.;.        ",
"    F.T.R.E.W.Q.!.~.^./.(.)._.`.q.;.        ",
"    F.'.].[.W.Q.!.~.^./.(.)._.{.}.|. X      ",
"    .XXX].[.W.Q.!.~.^./.(.)._.{.oXOX+X@X    ",
"  + #X$X%X&X*X=X!.~.^./.(.).`.-X;X:X>X,X    ",
"  <X1X2X3X4X5X6XJ.7X8XP.9X0XqXwXeXrXrXtX    ",
"    yXuXiXpXaXsXdXfXgXhXjXkXlXzXxXcXvX      ",
"        bXnXmXMXNXBXVXCXMXZXAXvXSX          "
};
