/* XPM */
static const char *icon_save_xpm[] = {
/* columns rows colors chars-per-pixel */
"22 22 255 2",
"P  c #52A8FF",
"G  c #BED4EF",
">X c #3855E1",
"AX c #557DD3",
"B  c #F7FAFF",
"/  c #395CC6",
"k  c #F2F6FF",
"X  c #223FB8",
"KX c #6680D0",
"K. c #416DD2",
"t  c #EDF2FF",
"A. c #FCF8EF",
"Q. c #E8E8EC",
"@  c #364CB7",
"IX c #5157B4",
"1X c #D4D5E1",
"oX c #E8E5E5",
"D. c #BBC4E6",
"+  c #364CB8",
"l. c #9BB5EA",
"(  c #7AC2FF",
"S. c #FFFFEF",
"$. c #BCD7F5",
".. c #4BA4FF",
"u. c #46A0FF",
"_  c #FFFFF7",
"a. c #66AFFF",
"m  c #3258C6",
" X c #E1E1E0",
"@X c #458DFC",
"p. c #4161C6",
"i  c #FAFBFF",
"y  c #F0F3FF",
"[  c #F5F4F7",
">  c #E4F1FD",
"F  c #82C7FF",
"=. c #B5D0EF",
"J. c #3F9CFF",
"nX c #B2BDD5",
"B. c #83A8EC",
"^  c #3365D2",
"D  c #2E61D2",
"n  c #295DD1",
"b  c #4EA5FE",
"aX c #749FF7",
"-  c #B3D3F0",
"8X c #4772D2",
"xX c #DAD7D5",
"CX c #6164B8",
"{. c #E9E3DC",
"HX c #7D7CB0",
";X c #DFD8D7",
"g  c #85C8FF",
"6  c #1F4CC6",
"FX c #7D7CB3",
"g. c #9CB3EB",
"Q  c #C2D9F2",
"wX c #6891E1",
"gX c #4A76D4",
"-X c #7299E6",
"i. c #3B6AD2",
"s  c #A4B8D3",
"w. c #4494FE",
"ZX c #516EC9",
"N  c #FBFCFF",
"H. c #3D96FF",
"(. c #3892FF",
"5. c #62A9FF",
"{  c #F1F1F6",
"A  c #F6F5F7",
"8  c #8DD0FF",
"#  c #354AB6",
"uX c #C4C4D4",
"*. c #B6D1F0",
"Y  c #C0D6F1",
"$  c #2945B7",
" . c #B1C4DD",
"V  c #F4F8FF",
"x. c #1851F2",
"Z  c #EFF4FF",
"x  c #EAF0FF",
"cX c #D6D4D4",
".  c #7678C2",
"NX c #2A90FF",
"vX c #CCCCD5",
"&X c #4A67C6",
"lX c #6E99E4",
"hX c #4560BF",
"$X c #3999FF",
"kX c #57AEFF",
"SX c #596DBF",
"eX c #C7C2CD",
"9X c #4D6BC8",
"XX c #DEDFE5",
"p  c #FCFDFF",
"*X c #70BCFF",
"v. c #3E97FF",
"3. c #3E5FC6",
",  c #E1EFFC",
"K  c #F2F2F8",
"<X c #D9D8E1",
"U  c #7FC5FF",
"5X c #4A93FD",
"]. c #57A5FF",
"U. c #7BA2EA",
"C. c #FFFBEC",
"E  c #375BC6",
"H  c #FFFEF8",
"#X c #328FFF",
"n. c #3F6CD2",
"z  c #E6EDFF",
"a  c #FFFEFA",
"/. c #4088FC",
"T. c #7084E4",
"4. c #70B3FF",
"PX c #496ECC",
"R. c #6679E3",
"}. c #3E5CE6",
"   c None",
"c. c #3480FB",
"e. c #4192FE",
"Z. c #FDF8EB",
"w  c #F8FAFF",
"0X c #6CB9FF",
"+. c #A9CDFA",
"<  c #DDECFC",
":  c #E7F4FE",
"G. c #3981FA",
"V. c #FDF5EA",
"y. c #4499FF",
"&. c #B8D3F2",
"BX c #3BA1FF",
"9  c #BDD1EB",
"N. c #5DA7FF",
"W. c #ECECED",
"dX c #2484FF",
"`. c #4765C6",
"7. c #539CFD",
"yX c #C4C3D1",
"GX c #7B7BB2",
";. c #B1CCED",
"f. c #9FB6EB",
"r. c #4797FF",
")  c #CADDF4",
"q  c #FEFFFF",
"o. c #3B5DC6",
"!. c #F4F1EC",
"J  c #EAEFFF",
"3  c #E8F2F5",
"|. c #354FE4",
"f  c #2359CB",
"+X c #4D7CF3",
"MX c #5EABFF",
"#. c #BED8F6",
"=X c #54A3FF",
"qX c #4F9FFF",
"z. c #7092EA",
"S  c #A5BBDA",
"mX c #94C1FF",
"l  c #E8EFFF",
"o  c #314CBD",
"0. c #4A98FD",
"~. c #B1BDE4",
"=  c #7FC7FF",
"P. c #75BFFF",
"m. c #4362C6",
"1  c #E1EEFB",
"&  c #6064BB",
"'  c #FCF9F8",
"2X c #DEDBDF",
">. c #ADC9EA",
"|  c #F2EEEF",
"%  c #1B3FBC",
":X c #405EE3",
"-. c #B2CDEE",
"k. c #96AFEA",
"tX c #8E98CC",
"T  c #A8BFDD",
"*  c #2544BA",
"[. c #769DE8",
"X. c #3566D2",
"M  c #BCD2EE",
"5  c #55AAFF",
"d  c #3C8AD6",
",X c #D7D7DB",
"r  c #F0F4FF",
"0  c #FFFDF8",
"OX c #AFBADF",
"6X c #2D8AFF",
"9. c #4D99FD",
"Y. c #F0EBE5",
"!  c #F0F1FB",
"W  c #7DC4FF",
"O  c #394EB9",
"M. c #78C0FF",
"4X c #628DF5",
"%. c #BAD5F4",
"DX c #7A79AE",
"fX c #3091FF",
"F. c #2353EF",
"v  c #A1B8D7",
"E. c #E9EAE8",
"L  c #A6BCDB",
"_. c #426FD2",
"I  c #355AC6",
"C  c #E9F0FF",
"7  c #3056C6",
"^. c #3A6AF1",
"2. c #3867D2",
"d. c #99ADE8",
"3X c #ADB7DB",
".X c #E4E3E6",
"j  c #FDFAF7",
"]  c #F8F6F7",
"6. c #559EFD",
"}  c #EEEEF6",
"8. c #509AFD",
"VX c #476DCC",
":. c #AECAEB",
"s. c #6394F2",
"j. c #97B0EA",
"zX c #CBC6CE",
"rX c #949DCD",
"b. c #429EFF",
"). c #3D9AFF",
"R  c #3163D2",
"4  c #9DBEDE",
"u  c #F6F9FF",
"%X c #4570D2",
"pX c #A6B0D4",
";  c #EAF4F7",
"LX c #5479D0",
"2  c #E5F0FA",
"7X c #3696FF",
"iX c #C9C6D2",
"sX c #4E97FE",
"t. c #4799FF",
"1. c #4AA3FF",
"@. c #C5DBF6",
"<. c #91B9ED",
"q. c #4796FD",
"L. c #4564C6",
"'. c #72BDFF",
"e  c #F4F6FF",
"`  c #FEFBF8",
"JX c #6F75B5",
"c  c #F9F7F8",
"bX c #D1CED3",
"O. c #7CC2FF",
"h. c #98B1EA",
"jX c #75C4FF",
",. c #AFC8E6",
"I. c #59A6FF",
"~  c #AAC1DF",
"h  c #B9D0EC",
/* pixels */
"                                            ",
"    . X o O + + + + @ @ # # # # # $ % &     ",
"    * = - ; : > , < < 1 1 2 2 2 3 4 5 6     ",
"    7 8 9 0 q w e r t y e u i p a s d f     ",
"    7 g h j i k r t l z z x t r c v b n     ",
"    m g M 0 N B V r t C z z x Z A S 5 D     ",
"    m F G H q N u e r t J z l t K L P D     ",
"    I U Y H q q N u e r t x z l K T b R     ",
"    E W Q a q q q p w u k r x l ! ~ b ^     ",
"    / ( ) _ a a a 0 ` ' ] [ { } |  ...X.    ",
"    o.O.+.@.#.$.%.&.*.=.-.;.:.>.,.<.1.2.    ",
"    3.W 4.5.6.7.8.9.0.q.w.e.e.r.t.y.u.i.    ",
"    p.( a.s.d.f.g.h.h.j.k.l.z.x.c.v.b.n.    ",
"    m.M.N.B.V.C.Z.A.A.A.A.S.D.F.G.H.J.K.    ",
"    L.P.I.U.Y.T.R.E.W.Q.Q.!.~.^./.(.)._.    ",
"    `.'.].[.{.}.|. X.XXXXXoXOX+X@X#X$X%X    ",
"    &X*X=X-X;X:X>X,X<X1X1X2X3X4X5X6X7X8X    ",
"    9X0XqXwXeXrXtXyXuXuXuXiXpXaXsXdXfXgX    ",
"    hXjXkXlXzXxXcXvXvXvXvXbXnXmXMXNXBXVX    ",
"    CXZXAXSXDXFXGXGXGXGXGXHXJXKXLX8XPXIX    ",
"                                            ",
"                                            "
};
