/* XPM */
static const char *icon_stop_xpm[] = {
/* columns rows colors chars-per-pixel */
"22 22 256 2",
"9  c #FFD6D6",
"V  c #FF9E9E",
"-X c #DE0000",
"+X c #EB5050",
"L  c #FF9B9B",
"8. c #FF6363",
"J  c #954B4B",
"Y. c #B80000",
"C  c #FF9898",
"O  c #A95E5E",
"'. c #FF2828",
"5. c #EB8282",
"=  c #EBB7B7",
"fX c #DC0000",
"$. c #BC9090",
"XX c #C90000",
"!  c #BC5555",
"DX c #B60000",
"}  c #FFFFFF",
"4  c #FFC7C7",
"d. c #FF5757",
" . c #CF4F4F",
">  c #A06060",
"r  c #FFC4C4",
"0. c #E24C4C",
"qX c #DA0000",
"#X c #FF1C1C",
"=X c #FE0303",
"t  c #FFC1C1",
"'  c #FF8989",
">. c #EB0303",
"y  c #FFBEBE",
"V. c #C50606",
"E  c #FF8686",
"[. c #E20E0E",
"~  c #FF4E4E",
"t. c #EB0000",
"&X c #E20B0B",
"m. c #FF4B4B",
"D. c #D80000",
"m  c #FFB8B8",
"rX c #C50000",
";X c #C48F8F",
"n. c #FF4848",
"w. c #E20808",
"jX c #B69696",
"5X c #FF1010",
",X c #B20000",
"9X c #FC0000",
"i  c #FFB5B5",
"). c #952D2D",
"dX c #E90000",
"%. c #CF7575",
"[  c #FF7A7A",
"BX c #D60000",
"T  c #C59F9F",
"7  c #E2A7A7",
"4. c #B38080",
" X c #C30000",
"D  c #FF7777",
"K. c #FF3F3F",
"JX c #7F1A1A",
"%  c #FFE4E4",
"LX c #D0BDBD",
"pX c #FF0404",
"3. c #B68A8A",
"U  c #BC6F6F",
"lX c #9D0000",
"q. c #CFA4A4",
"z. c #E70000",
"I  c #FFA9A9",
"U. c #D40000",
"b  c #B26161",
"*  c #FFDEDE",
")  c #944040",
"j  c #FFA6A6",
",. c #F80000",
":X c #BD0F0F",
"E. c #FF3333",
"M  c #BC6666",
"+. c #E50000",
"`  c #A85050",
"8  c #FFD8D8",
"H. c #E26060",
"$  c #EBC2C2",
"hX c #880000",
"]. c #D81D1D",
"c. c #D20000",
"e. c #FD0101",
"-  c #BC6363",
"W  c #CF5D5D",
"|. c #D8BFBF",
"0  c #FFD2D2",
"Z. c #F60000",
"7. c #FF6262",
"c  c #D46161",
"1. c #E30000",
"z  c #FF9797",
"+  c #A95D5D",
"`. c #FF2727",
"VX c #D00000",
"2X c #F2ECEC",
"oX c #890D0D",
"$X c #CF1F1F",
"w  c #FFCCCC",
"v. c #934D4D",
"5  c #B24C4C",
"s  c #FFC9C9",
"xX c #F40000",
"p  c #E17070",
"^. c #E10000",
"s. c #FF5656",
"F. c #CE0000",
"|  c #C54343",
"mX c #C2A3A3",
"a. c #FF5353",
"@X c #FF1B1B",
"C. c #FE0202",
"0X c #F20000",
"   c None",
"(  c #DF0000",
"bX c #A98383",
".. c #EBDFDF",
"j. c #E20D0D",
"v  c #D9C0C0",
"<X c #8F5050",
">X c #CC0000",
"{  c #BC4848",
"i. c #A67373",
"u  c #FFBABA",
"o  c #8C4040",
"{. c #E20A0A",
"M. c #FF4A4A",
"8X c #F50707",
"3X c #953232",
"g. c #E23F3F",
"O. c #F00000",
"(. c #C0A0A0",
"N. c #FF4747",
"6X c #FF0F0F",
"iX c #9F0202",
"%X c #CFAFAF",
"N  c #CF7777",
"x. c #DD0000",
"&  c #FFECEC",
"UX c #ECECEC",
"NX c #CA0000",
"Q. c #A86161",
"tX c #830D0D",
"<  c #FFE9E9",
"X. c #CF0404",
"#. c #E9DCDC",
"]  c #FF7979",
"@  c #8C3737",
"GX c #B70000",
"*X c #FF0909",
"^  c #FC3131",
"1  c #FFE6E6",
"a  c #D89B9B",
"<. c #EE0000",
"K  c #F5A3A3",
"L. c #FF3E3E",
"G  c #F76262",
"k. c #FF0606",
"#  c #BC7171",
"AX c #ECE6E6",
"HX c #910000",
".X c #DB0000",
"P. c #CF3636",
"h  c #FFABAB",
"b. c #FF7373",
";  c #8C3131",
"h. c #CFA3A3",
"u. c #C80000",
",  c #FFE0E0",
"2. c #B50000",
"!. c #CFA0A0",
"_  c #ECE0E0",
"kX c #B99393",
"/. c #A20000",
"B  c #FFA5A5",
"A. c #EC0000",
"*. c #FF6D6D",
"cX c #D90000",
"R  c #C55A5A",
"gX c #C60000",
"Q  c #E2CFCF",
"Z  c #CF6262",
".  c #D0B0B0",
"SX c #821A1A",
"l  c #FF9C9C",
"1X c #FCFCFC",
"T. c #C55151",
"9. c #FF6161",
"ZX c #7D0D0D",
"q  c #FFCECE",
"IX c #CCB9B9",
"6. c #FF5E5E",
"4X c #FF2626",
"o. c #FB0000",
"uX c #C9A9A9",
"/  c #F20B0B",
"wX c #D50000",
"H  c #A80808",
"e  c #FFC8C8",
"I. c #C20000",
"OX c #E6E0E0",
"aX c #FE0404",
"Y  c #F5EFEF",
"n  c #FFC2C2",
"f. c #FF5252",
"A  c #BC4D4D",
"vX c #D30000",
"d  c #FFBFBF",
"KX c #9C6A6A",
"PX c #B38D8D",
"CX c #AD0000",
"G. c #995A5A",
"zX c #F70000",
"@. c #9A0000",
"yX c #DFD9D9",
"~. c #D10000",
"f  c #FFB6B6",
"S  c #FF7E7E",
"6  c #8C3C3C",
"7X c #FF0E0E",
"p. c #FF7B7B",
"nX c #F6F6F6",
"r. c #F50000",
":. c #A86060",
"B. c #CF3B3B",
"g  c #FFB0B0",
"S. c #E20000",
"J. c #FF3D3D",
"-. c #EB5F5F",
":  c #F6F0F0",
";. c #CFA5A5",
"2  c #FFE2E2",
"X  c #A97070",
"_. c #FF3A3A",
"W. c #D82727",
"sX c #F30000",
"x  c #FE9191",
"P  c #FFA7A7",
"=. c #FF6F6F",
"y. c #E00000",
"}. c #CF9F9F",
"3  c #FFDCDC",
"eX c #CD0000",
"MX c #860D0D",
"FX c #BA0000",
"k  c #FFA1A1",
"&. c #FF6969",
"F  c #FD7272",
"R. c #FF3131",
"l. c #F10000",
/* pixels */
"              . X o O + o X .               ",
"          . @ # $ % & & * = - ; .           ",
"      : > # , < 1 % 2 , * 3 3 4 5 > :       ",
"    : 6 7 , 8 9 0 q w e r t y u i p @ :     ",
"    > a 8 q s r d u f g h j k l z x c >     ",
"  v b e n y m M N B V C x Z A S D F G H v   ",
"  J K L P I U Y T R E S W Q Y ! ~ ^ / ( )   ",
"_ ` ' ] [ { Y } } T |  .Q } } ..X.o.O.+.@.#.",
"$.%.&.*.=.-.;.} } } T Q } } } :.>.,.<.1.2.3.",
"4.5.6.7.8.9.0.q.} } } } } } :.w.e.r.t.y.u.i.",
"o p.a.s.d.s.f.g.h.} } } } :.j.k.o.l.z.x.c.v.",
"> b.n.m.m.M.N.B.Q } } } } T V.C.Z.A.S.D.F.G.",
"4.H.J.K.K.L.P.Q } } } } } } T I.O.z.x.U.Y.i.",
". T.R.E.E.W.Q } } } Q.!.} } } T ~.^.D.F./.(.",
": )._.`.'.].Q } } :.[.{.}.} } |. X.Xc.XXoXOX",
"  > +X@X#X@X$X%X:.&X*X=X-X;X%X:Xx.U.>X,X<X1X",
"  2X3X4X5X6X7Xw.8X=X9X,.0XqX>Xx.wXeXrXtXyX  ",
"    uXiXpXaX=Xe.o.,.sX<.dXS.fXwXF.gXhXjX1X  ",
"      kXlXzXZ.xXl.<.dX+.( cXvX>XrXhXbXnX    ",
"        mXMXNXdXz.1.( .XBXVXNXCXZXjXnX      ",
"          AXi.SX@.DXFXGXCXHXJXKXyX1X        ",
"              nXLXPXi.i.PXIXUX1X            "
};
