/* XPM */
static const char *icon_pretty_xpm[] = {
/* columns rows colors chars-per-pixel */
"16 16 5 1",
". c Black",
"O c #FFFF00",
"  c None",
"X c #FF0000",
"o c #00FF00",
/* pixels */
"                ",
"      ....      ",
"    X .oo. X    ",
"   XX .oo. XX   ",
"  XXX .oo. XXX  ",
"      ....      ",
" .....OOOO..... ",
" .ooo.O..O.ooo. ",
" .ooo.O..O.ooo. ",
" .....OOOO..... ",
"      ....      ",
"  XXX .oo. XXX  ",
"   XX .oo. XX   ",
"    X .oo. X    ",
"      ....      ",
"                "
};
